# xmcd
#
# Track frame offsets:
#	150
#	10950
#	24375
#	38693
#	50924
#	63000
#	76769
#	91309
#	102039
#	113309
#	125103
#	137550
#	157114
#	172301
#	188803
#	213629
#	229079
#	246332
#	261032
#	270408
#
# Disc length: 3840 seconds
#
# Revision: 0
# Processed by: cddbd v1.4PL0 Copyright (c) Steve Scherf et al.
# Submitted via: dBpowerAMP V4.0
#
DISCID=0d0efe14
DTITLE=Mary Kay Place - The Ahern Sessions 1976-1977
DYEAR=1900
DGENRE=Country
TTITLE0=Vitamin L
TTITLE1=Streets Of This Town (Ode To Fernwood)
TTITLE2=Gold In The Ground
TTITLE3=Settin' The Woods On Fire
TTITLE4=Good Ol' Country Baptizin'
TTITLE5=Baby Boy
TTITLE6=Get Acquainted Waltz
TTITLE7=Coke And Chips
TTITLE8=Have A Little Talk With Jesus
TTITLE9=All I Can Do
TTITLE10=Dolly's Dive
TTITLE11=Paintin' Her Fingernails
TTITLE12=Don't Make Love (To A Country Music Singer)
TTITLE13=Marlboro Man
TTITLE14=Anybody's Darlin' (Anything But Mine)
TTITLE15=You Can't Go To Heaven (If You Don't Have A Good Time)
TTITLE16=Cattle Kate
TTITLE17=Even Cowgirls Get The Blues
TTITLE18=Something To Brag About
TTITLE19=Save The Last Dance For Me
EXTD=Featuring Nicolette Larson. Submitted by Steve Clancy
EXTT0=
EXTT1=
EXTT2=
EXTT3=
EXTT4=
EXTT5=
EXTT6=
EXTT7=
EXTT8=
EXTT9=
EXTT10=
EXTT11=
EXTT12=
EXTT13=
EXTT14=
EXTT15=
EXTT16=
EXTT17=
EXTT18=
EXTT19=
PLAYORDER=
